<svg width="170" height="22" viewBox="0 0 170 22" fill="none" xmlns="http://www.w3.org/2000/svg">
<path d="M0 21.2358V0.0380859H22.3984V3.78312H5.13564V8.40985H15.1896V12.0569H5.13564V17.2704H22.6639V21.2358H0Z" fill="#02906D"/>
<path d="M27.8477 21.2348V0.0371094H32.9829V17.2694H49.3541V21.2348H27.8477Z" fill="#02906D"/>
<path d="M53.5586 21.2348V0.0371094H58.6939V8.09048H74.5833V0.0371094H79.67V21.2348H74.5833V12.3001H58.6939V21.2348H53.5586Z" fill="#02906D"/>
<path d="M83.3496 21.2348L95.7426 0.0371094H100.637L113.223 21.2348H107.508L104.88 16.584H91.0649L88.4367 21.2348H83.3496ZM93.2348 12.7169H102.807L97.9366 3.88047L93.2348 12.7169Z" fill="#02906D"/>
<path d="M133.021 13.3262H135.887C137.609 13.3262 138.851 13.2603 139.622 12.6239C140.394 11.9868 140.768 11.2095 140.768 9.77066V4.78052C140.768 3.32688 140.394 1.94455 139.622 1.29985C138.851 0.655508 137.609 0 135.887 0H117.021V21.25H122.059V3.96186H133.724C134.607 3.96186 135.42 4.2662 135.75 4.5284C136.079 4.79061 136.45 5.40974 136.45 6.03175V8.47441C136.45 9.09642 136.079 9.48577 135.75 9.74797C135.42 10.0102 134.607 10.0847 133.724 10.0847H126.376V13.8395L135.648 21.25H142.953L133.021 13.3262Z" fill="#02906D"/>
<path d="M159.898 3.79402V21.25H154.81V3.79402H144.732V0H170V3.79402H159.898Z" fill="#02906D"/>
</svg>
